<svg width="40" height="40" viewBox="0 0 40 40" fill="none" xmlns="http://www.w3.org/2000/svg"><title>UNIQLO 홈</title><path d="M0 0H40V40H0V0Z" fill="#FF0000"></path><path fill-rule="evenodd" clip-rule="evenodd" d="M9.26006 18.1059C11.5836 18.1059 13.4678 16.2235 13.4701 13.9V5.46997H10.9401V13.9C10.9401 14.8278 10.1879 15.58 9.26006 15.58C8.33226 15.58 7.58006 14.8278 7.58006 13.9V5.46997H5.05006V13.9C5.05236 16.2235 6.93656 18.1059 9.26006 18.1059ZM32.0101 5.46997H29.4801V18.11H32.0101V5.46997ZM25.2601 34.53H16.8401V21.89H19.3701V32H25.2601V34.53ZM22.7301 18.11H25.2601V5.46997H22.7301V12.69L19.3701 5.46997H16.8401V18.11H19.3701V10.89L22.7301 18.11ZM9.26006 21.89C8.14176 21.89 7.06946 22.3349 6.27956 23.1266C5.48976 23.9183 5.04736 24.9917 5.05006 26.11V30.32C5.05006 32.6451 6.93496 34.53 9.26006 34.53C9.53496 34.5327 9.80956 34.5093 10.0801 34.46L10.9401 37.06H13.4701L12.2201 33.31C13.0225 32.5183 13.4729 31.4372 13.4701 30.31V26.11C13.4728 24.9917 13.0304 23.9183 12.2406 23.1266C11.4507 22.3349 10.3784 21.89 9.26006 21.89ZM9.26006 32C10.1879 32 10.9401 31.2478 10.9401 30.32V26.11C10.9401 25.1822 10.1879 24.43 9.26006 24.43C8.33226 24.43 7.58006 25.1822 7.58006 26.11V30.32C7.58006 31.2478 8.33226 32 9.26006 32ZM30.735 21.89C28.4067 21.8927 26.5201 23.781 26.5201 26.11V30.32C26.5201 32.6451 28.405 34.53 30.7301 34.53C33.0552 34.53 34.9401 32.6451 34.9401 30.32V26.11C34.9427 24.9917 34.5004 23.9183 33.7106 23.1266C32.9218 22.336 31.8515 21.8913 30.735 21.89ZM30.735 21.89L30.7301 21.89H30.7401L30.735 21.89ZM30.7251 32.005C31.6557 32.005 32.4101 31.2506 32.4101 30.32V26.11C32.4101 25.1794 31.6557 24.425 30.7251 24.425C29.7945 24.425 29.0401 25.1794 29.0401 26.11V30.32C29.0401 31.2506 29.7945 32.005 30.7251 32.005Z" fill="white"></path></svg>